<svg xmlns="http://www.w3.org/2000/svg" version="1.1" xmlns:xlink="http://www.w3.org/1999/xlink" xmlns:svgjs="http://svgjs.dev/svgjs" width="1000" height="750" viewBox="0 0 1000 750"><rect width="1000" height="750" fill="#010536"></rect><g transform="matrix(0.5934959349593496,0,0,0.5934959349593496,202.94153983137898,83.23644185990236)"><svg viewBox="0 0 251 247" data-background-color="#010536" preserveAspectRatio="xMidYMid meet" height="984" width="1000" xmlns="http://www.w3.org/2000/svg" xmlns:xlink="http://www.w3.org/1999/xlink"><g id="tight-bounds" transform="matrix(1,0,0,1,0.13131337514911934,-0.09999804897967124)"><svg viewBox="0 0 250.73737373737373 247.2" height="247.2" width="250.73737373737373"><g><svg viewBox="0 0 250.73737373737373 247.2" height="247.2" width="250.73737373737373"><g><svg viewBox="0 0 250.73737373737373 247.2" height="247.2" width="250.73737373737373"><g id="textblocktransform"><svg viewBox="0 0 250.73737373737373 247.2" height="247.2" width="250.73737373737373" id="textblock"><g><svg viewBox="0 0 250.73737373737373 247.2" height="247.2" width="250.73737373737373"><g transform="matrix(1,0,0,1,0,0)"><svg width="250.73737373737373" viewBox="2.440000057220459 -27.729999542236328 29.420000076293945 29" height="247.2" data-palette-color="#fbfbf8"><path d="M16.36 1.27L16.36 1.27Q12.92 1.27 10.31 0.15 7.71-0.98 5.96-2.84 4.2-4.71 3.32-7.14 2.44-9.57 2.44-12.18L2.44-12.18Q2.44-14.79 3.3-17.15 4.15-19.51 5.69-21.37 7.23-23.24 9.38-24.5 11.52-25.76 14.11-26.2L14.11-26.2Q14.5-26.22 14.5-26.37L14.5-26.37Q14.5-26.64 14.44-26.87 14.38-27.1 14.38-27.27L14.38-27.27Q14.38-27.54 14.48-27.64 14.58-27.73 14.7-27.73L14.7-27.73Q19.36-27.73 22.63-26.67 25.9-25.61 27.95-23.78 30-21.95 30.93-19.46 31.86-16.97 31.86-14.11L31.86-14.11Q31.86-10.47 30.64-7.62 29.42-4.76 27.31-2.78 25.2-0.81 22.38 0.23 19.56 1.27 16.36 1.27ZM11.84-12.45L11.84-12.45Q11.84-11.13 12.12-9.84 12.4-8.54 13.05-7.5 13.7-6.45 14.75-5.8 15.8-5.15 17.36-5.15L17.36-5.15Q18.48-5.2 19.32-5.65 20.17-6.1 20.78-6.82 21.39-7.54 21.79-8.45 22.19-9.35 22.42-10.31 22.66-11.28 22.75-12.21 22.85-13.13 22.85-13.89L22.85-13.89Q22.85-15.16 22.47-16.38 22.09-17.6 21.36-18.53 20.63-19.46 19.54-20.03 18.46-20.61 17.04-20.61L17.04-20.61Q15.58-20.61 14.58-19.74 13.57-18.87 12.98-17.6 12.38-16.33 12.11-14.93 11.84-13.53 11.84-12.45Z" opacity="1" transform="matrix(1,0,0,1,0,0)" fill="#fbfbf8" class="wordmark-text-0" data-fill-palette-color="primary" id="text-0"></path></svg></g></svg></g></svg></g></svg></g><g></g></svg></g><defs></defs></svg><rect width="250.73737373737373" height="247.2" fill="none" stroke="none" visibility="hidden"></rect></g></svg></g></svg>